#N canvas 536 149 966 748 12;
#X obj 110 585 dac~, f 6;
#X obj 110 558 *~, f 5;
#X obj 195 486 hsl 172 20 0.01 0.9 1 0 empty empty vol -2 -10 0 12 #fcfcfc #000000 #00ffff 0 1;
#X text 206 106 input p5js, f 9;
#N canvas 733 172 450 300 vca 0;
#X obj 300 635 line, f 7;
#X obj 300 659 lop~ 1, f 7;
#X msg 300 611 \$1 30, f 7;
#X obj 300 512 inlet;
#X obj 300 753 outlet~;
#X obj 300 720 -~;
#X obj 376 640 *~ 0.05;
#X obj 376 720 *~;
#X obj 387 685 *~ 0.2;
#X obj 376 611 osc~ 0.5;
#X obj 325 548 != 0.01;
#X obj 300 577 *;
#X obj 300 685 *~ 0.9, f 11;
#X connect 0 0 1 0;
#X connect 1 0 8 0;
#X connect 1 0 12 0;
#X connect 2 0 0 0;
#X connect 3 0 11 0;
#X connect 3 0 10 0;
#X connect 5 0 4 0;
#X connect 6 0 7 0;
#X connect 7 0 5 1;
#X connect 8 0 7 1;
#X connect 9 0 6 0;
#X connect 10 0 11 1;
#X connect 11 0 2 0;
#X connect 12 0 5 0;
#X restore 192 521 pd vca;
#X obj 197 161 vsl 17 128 0 0.5 0 0 empty empty rX 0 -9 0 10 #191919 #e1e1e1 #00e1e1 0 1;
#X obj 259 161 vsl 17 128 0 1 0 0 empty empty rZ 0 -9 0 10 #191919 #e1e1e1 #00e1e1 0 1;
#X obj 193 303 * 2;
#X obj 255 362 spigot;
#X obj 255 303 t f f;
#X obj 278 333 <= 1;
#X obj 193 332 clip 0 1;
#X obj 110 420 noise~;
#X obj 255 388 * 8000;
#X obj 110 486 vcf~ 1;
#X obj 255 414 lop~ 1;
#X obj 110 341 loadbang, f 10;
#X msg 110 370 \; pd dsp 1, f 10;
#X connect 1 0 0 0;
#X connect 1 0 0 1;
#X connect 2 0 4 0;
#X connect 4 0 1 1;
#X connect 5 0 7 0;
#X connect 6 0 9 0;
#X connect 7 0 11 0;
#X connect 8 0 13 0;
#X connect 9 0 8 0;
#X connect 9 1 10 0;
#X connect 10 0 8 1;
#X connect 11 0 2 0 32.................XA.........V.........7J....;
#X connect 12 0 14 0;
#X connect 13 0 15 0;
#X connect 14 0 1 0;
#X connect 15 0 14 1 32.................d....32+++uG....98+++2E....;
#X connect 16 0 17 0;
